<svg width="24" height="24" viewBox="0 0 24 24" fill="none" xmlns="http://www.w3.org/2000/svg">
<path fill-rule="evenodd" clip-rule="evenodd" d="M0.333984 11.9997C0.333984 5.55635 5.55733 0.333008 12.0007 0.333008C18.444 0.333008 23.6673 5.55635 23.6673 11.9997C23.6673 18.443 18.444 23.6663 12.0007 23.6663C5.55733 23.6663 0.333984 18.443 0.333984 11.9997ZM7.87593 7.87484C8.33154 7.41923 9.07023 7.41923 9.52585 7.87484L12.0007 10.3497L14.4755 7.87482C14.9311 7.41921 15.6698 7.41921 16.1254 7.87482C16.581 8.33043 16.581 9.06912 16.1254 9.52473L13.6506 11.9996L16.1255 14.4745C16.5811 14.9301 16.5811 15.6688 16.1255 16.1244C15.6699 16.58 14.9312 16.58 14.4756 16.1244L12.0007 13.6495L9.52574 16.1244C9.07012 16.58 8.33143 16.58 7.87582 16.1244C7.42021 15.6688 7.42021 14.9301 7.87582 14.4745L10.3507 11.9996L7.87593 9.52476C7.42032 9.06915 7.42032 8.33046 7.87593 7.87484Z" fill="#9D9D9D"/>
</svg>
